<svg xmlns="http://www.w3.org/2000/svg" width="406.45" height="37.77" viewBox="0 0 406.45 37.77"><defs><style>.cls-1{fill:#fff;}</style></defs><title>Artboard 23</title><g id="Layer_3" data-name="Layer 3"><polygon points="-0.16 18.87 203.17 29.57 203.87 7.5 -0.16 18.87"/><path class="cls-1" d="M202.58,36.27a17.41,17.41,0,1,1,8-2A17.35,17.35,0,0,1,202.58,36.27Z"/><path d="M202.55,0V3h0a15.88,15.88,0,0,1,7.37,30,15.88,15.88,0,0,1-22.51-18.83A15.9,15.9,0,0,1,202.55,3V0m0,0A18.88,18.88,0,1,0,219.3,10.14,18.81,18.81,0,0,0,202.55,0Z"/></g></svg>