<?xml version="1.0" encoding="utf-8"?>
<!-- Generator: Adobe Illustrator 22.1.0, SVG Export Plug-In . SVG Version: 6.00 Build 0)  -->
<svg version="1.1" xmlns="http://www.w3.org/2000/svg" xmlns:xlink="http://www.w3.org/1999/xlink" x="0px" y="0px"
	 viewBox="0 0 761 312" style="enable-background:new 0 0 761 312;" xml:space="preserve">
<style type="text/css">
	.st0{fill:#F2F2F2;}
	.st1{fill:#B2E2D3;}
	.st2{fill:#FFFFFF;}
	.st3{fill:#FFBE32;}
	.st4{fill:#EDEDEE;}
	.st5{fill:none;}
	.st6{fill:#474E5A;}
	.st7{fill:#474F59;}
	.st8{fill:#ECECED;}
	.st9{clip-path:url(#SVGID_2_);fill:#FFBD32;}
	.st10{clip-path:url(#SVGID_2_);fill:#474E5A;}
	.st11{fill:#FFBE33;}
	.st12{clip-path:url(#SVGID_4_);fill:#6C717B;}
	.st13{clip-path:url(#SVGID_4_);fill:#FFFFFF;}
	.st14{clip-path:url(#SVGID_6_);fill:#EC1F54;}
	.st15{clip-path:url(#SVGID_6_);fill:#FFFFFF;}
	.st16{clip-path:url(#SVGID_8_);fill:#6C717B;}
	.st17{clip-path:url(#SVGID_8_);fill:#FFFFFF;}
	.st18{clip-path:url(#SVGID_10_);fill:#EC1F54;}
	.st19{clip-path:url(#SVGID_10_);fill:#FFFFFF;}
	.st20{fill:#1D1D1B;}
	.st21{fill:#FF0030;}
	.st22{fill:#2D90FF;}
	.st23{clip-path:url(#SVGID_12_);fill:#8B0032;}
	.st24{clip-path:url(#SVGID_12_);fill:#2D90FF;}
	.st25{clip-path:url(#SVGID_12_);fill:#19D69A;}
	.st26{clip-path:url(#SVGID_12_);fill:#FF0030;}
	.st27{clip-path:url(#SVGID_14_);fill:#8B0032;}
	.st28{clip-path:url(#SVGID_14_);fill:#2D90FF;}
	.st29{clip-path:url(#SVGID_14_);fill:#19D69A;}
	.st30{clip-path:url(#SVGID_14_);fill:#FF0030;}
	.st31{fill:#ED1F54;}
	.st32{fill:#EC1F54;}
	.st33{clip-path:url(#SVGID_16_);fill:#474E5A;}
	.st34{clip-path:url(#SVGID_16_);fill:#FFBD32;}
	.st35{clip-path:url(#SVGID_18_);fill:#FFBE33;}
	.st36{clip-path:url(#SVGID_20_);fill:#FFBE33;}
	.st37{clip-path:url(#SVGID_22_);fill:#FFBE32;}
	.st38{clip-path:url(#SVGID_22_);fill:#474E5A;}
	.st39{clip-path:url(#SVGID_24_);fill:#474E5A;}
	.st40{clip-path:url(#SVGID_24_);fill:#FFBE32;}
	.st41{clip-path:url(#SVGID_26_);fill:#8B0032;}
	.st42{clip-path:url(#SVGID_26_);fill:#2D90FF;}
	.st43{clip-path:url(#SVGID_26_);fill:#19D69A;}
	.st44{clip-path:url(#SVGID_26_);fill:#FF0030;}
	.st45{fill:#19D69A;}
	.st46{fill:none;stroke:#FFFFFF;stroke-miterlimit:10;}
	.st47{fill:#8B0032;}
	.st48{fill:#8C0032;}
</style>
<g id="Layer_1">
	<g>
		<path class="st20" d="M273.6,201V218h-4v-17.3c0-0.5-0.3-0.9-0.8-0.9c-0.4,0-0.7,0.2-0.9,0.7l-1.4,3.7l-3.1-1.1l1.3-3.4
			c0.7-1.8,2.2-3.1,4.6-3.1C271.8,196.6,273.6,198.3,273.6,201z"/>
		<path class="st20" d="M284.8,218.3c-4.3,0-7.4-2.6-7.4-6.3c0-2.2,1-4,2.7-5.1c-1.2-1-2-2.5-2-4.2c0-3.7,2.8-6.2,6.7-6.2
			c3.8,0,6.7,2.5,6.7,6c0,1.8-0.8,3.3-2,4.3c1.7,1.2,2.8,3,2.8,5.1C292.2,215.8,289.1,218.3,284.8,218.3z M288.1,211.6
			c0-1.9-1.4-3.2-3.4-3.2c-1.9,0-3.4,1.2-3.4,3.2c0,1.9,1.4,3.1,3.4,3.1C286.8,214.7,288.1,213.5,288.1,211.6z M282.1,202.8
			c0,1.7,1.2,2.6,2.7,2.6c1.5,0,2.7-1,2.7-2.6c0-1.7-1.2-2.6-2.7-2.6C283.2,200.2,282.1,201.1,282.1,202.8z"/>
		<path class="st20" d="M294.9,216.2c0-1.2,1-2.2,2.2-2.2s2.2,1,2.2,2.2c0,1.2-1,2.2-2.2,2.2S294.9,217.4,294.9,216.2z"/>
		<path class="st20" d="M316.7,211.1c0,4.7-3.7,7.2-7.8,7.2c-3.9,0-6.9-2.4-6.9-5.6c0-0.8,0.1-1.6,0.8-3l3.6,1.2
			c-0.5,0.8-0.6,1.2-0.6,1.7c0,1.1,1.3,2,3.1,2c2.4,0,3.7-1.4,3.7-3.6c0-2.3-1.6-3.7-3.7-3.7c-1.6,0-2.5,0.4-3.3,1.2l-3.2-1.5
			l1.3-7.3c0.3-1.5,1.5-2.8,3.2-2.8h8.5v3.4h-6.8c-0.9,0-1.5,0.4-1.7,1.4l-0.5,2.8c0.9-0.4,1.9-0.6,3-0.6
			C313.5,203.9,316.7,206.8,316.7,211.1z"/>
	</g>
	<g>
		<path class="st20" d="M526.3,301.9v3.4h-2.7v5h-4v-5h-6.3c-3.8,0-4.6-3.3-2.7-5.3l9.7-10.8h3.3v12.7H526.3z M514.7,301.9h5v-7
			l-5.4,5.9C513.7,301.4,514.1,301.9,514.7,301.9z"/>
		<path class="st20" d="M528.8,299.7c0-7.1,3-10.9,8-10.9c5.1,0,8,3.8,8,10.9c0,7.1-2.9,10.9-8,10.9
			C531.8,310.6,528.8,306.8,528.8,299.7z M540.8,299.8c0-5.2-1.5-7.3-4-7.3c-2.5,0-4,2.2-4,7.3c0,5.1,1.5,7.1,4,7.1
			C539.3,306.9,540.8,304.9,540.8,299.8z"/>
	</g>
	<g>
		<path class="st20" d="M226.7,299.7c0-7.1,3-10.9,8-10.9c5.1,0,8,3.8,8,10.9c0,7.1-2.9,10.9-8,10.9
			C229.7,310.6,226.7,306.8,226.7,299.7z M238.7,299.8c0-5.2-1.5-7.3-4-7.3s-4,2.2-4,7.3c0,5.1,1.5,7.1,4,7.1
			S238.7,304.9,238.7,299.8z"/>
	</g>
	<g>
		<path class="st20" d="M481.1,210.4c0,3.8-3,6.2-7.3,6.2c-3.8,0-6.2-1.8-7.3-5.2l3.6-1.1c0.4,1.6,1.6,2.7,3.6,2.7
			c2.1,0,3.4-1.2,3.4-3c0-1.7-1.4-2.8-3.4-2.8h-0.9V204h0.9c2,0,3.1-1.2,3.1-2.9c0-1.6-1-2.7-2.9-2.7c-1.8,0-2.7,1-2.7,2.2
			c0,0.5,0.1,0.9,0.6,1.7l-3.6,1.2c-0.7-1.4-0.8-2.2-0.8-3c0-3.2,2.8-5.6,6.6-5.6c4.1,0,6.8,2.2,6.8,5.7c0,2-1,3.7-2.5,4.8
			C479.9,206.4,481.1,208.1,481.1,210.4z"/>
		<path class="st20" d="M483.9,205.8c0-7.1,3-10.9,8-10.9c5.1,0,8,3.8,8,10.9c0,7.1-2.9,10.9-8,10.9
			C486.9,216.6,483.8,212.9,483.9,205.8z M495.8,205.8c0-5.2-1.5-7.3-4-7.3s-4,2.2-4,7.3c0,5.1,1.5,7.1,4,7.1
			C494.4,213,495.8,211,495.8,205.8z"/>
	</g>
	<g>
		<path class="st20" d="M382.7,167.4v3.5h-10c-2.5,0-3.9-1.6-3.9-3.7c0-5.5,9.8-5.8,9.8-11.4c0-1.8-1.1-2.8-2.8-2.8
			c-1.9,0-3,1-3,2.5c0,0.5,0.1,0.9,0.6,1.7l-3.6,1.2c-0.7-1.4-0.8-2.2-0.8-3c0-3.5,3-5.9,7-5.9c4.3,0,6.7,2.8,6.7,6.3
			c0,7.3-9.3,8.5-9.3,10.8c0,0.6,0.4,0.9,1,0.9H382.7z"/>
		<path class="st20" d="M400.2,164c0,4.7-3.7,7.2-7.8,7.2c-3.9,0-6.9-2.4-6.9-5.6c0-0.8,0.2-1.6,0.8-3l3.6,1.2
			c-0.4,0.8-0.6,1.2-0.6,1.7c0,1.1,1.3,2,3.1,2c2.4,0,3.7-1.4,3.7-3.6c0-2.3-1.6-3.7-3.7-3.7c-1.6,0-2.5,0.4-3.3,1.2l-3.2-1.5
			l1.3-7.3c0.3-1.5,1.5-2.8,3.2-2.8h8.5v3.4h-6.8c-0.9,0-1.5,0.5-1.7,1.4l-0.5,2.8c0.9-0.4,1.9-0.6,3-0.6
			C396.9,156.8,400.2,159.7,400.2,164z"/>
	</g>
	<g>
		<defs>
			<rect id="SVGID_25_" x="2" y="36.4" width="758.2" height="308.6"/>
		</defs>
		<clipPath id="SVGID_2_">
			<use xlink:href="#SVGID_25_"  style="overflow:visible;"/>
		</clipPath>
		<path style="clip-path:url(#SVGID_2_);fill:#8B0032;" d="M559.6,128.9l-60.3,61.8c29.9,30.9,48.4,73.4,48.4,120.4h85.5
			C633.2,240,605.1,175.6,559.6,128.9"/>
		<path style="clip-path:url(#SVGID_2_);fill:#2D90FF;" d="M201.5,131.6c-44,46.4-71.1,108.5-71.1,179.6h84.2
			c0-46.4,18-88.4,47.3-119.2L201.5,131.6z"/>
		<path style="clip-path:url(#SVGID_2_);fill:#19D69A;" d="M380.6,140.3l-0.4-87.2V53c-70.8,0.5-133.3,30.6-178.6,78.4l60.4,60.5
			C292.1,160.2,334.1,140.5,380.6,140.3"/>
		<path style="clip-path:url(#SVGID_2_);fill:#FF0030;" d="M381.1,140.3c46.2,0,87.9,19.3,118.1,50.4l60.4-62.1
			c-45.5-46.7-108.4-75.7-177.8-75.7c-0.6,0-1.3,0.3-1.9,0.3l0.6,87.2C380.7,140.3,380.9,140.3,381.1,140.3"/>
	</g>
	<g>
		<path class="st5" d="M115.6,325.3c0,0-12.2-108.9,71.3-195.5"/>
		<path d="M93.8,297.3l0.3-3.8l14.5,1.1c1.1,0.1,2.1-0.2,2.9-0.8c0.8-0.6,1.2-1.6,1.3-2.8c0.1-1.4-0.2-2.5-0.8-3.3
			c-0.6-0.8-1.6-1.3-2.8-1.4l-14.4-1.1l0.3-3.8l14.7,1.1c2.2,0.2,3.9,1,5,2.6c1.1,1.6,1.6,3.6,1.4,6.1c-0.2,2.5-1,4.4-2.3,5.6
			c-1.3,1.3-3.1,1.8-5.4,1.6L93.8,297.3z"/>
		<path d="M118.2,270.7l-9-1.3c-1.3-0.2-2.3-0.1-3,0.3c-0.7,0.4-1.1,1.2-1.3,2.4c-0.1,0.5,0,1.1,0.2,1.8c0.2,0.6,0.5,1.2,0.9,1.6
			l11.2,1.6l-0.5,3.6l-15.5-2.2l0.4-2.6l1.5-0.5c-1-1.2-1.4-2.7-1.1-4.6c0.3-1.8,1-3.2,2.3-4.1c1.3-0.9,2.9-1.2,4.9-0.9l9.5,1.4
			L118.2,270.7z"/>
		<path d="M121,255l-0.9-0.2c0.3,0.4,0.5,0.9,0.6,1.7c0.1,0.8,0.1,1.5-0.1,2.3c-0.4,2.1-1.4,3.7-3.1,4.7c-1.6,1-3.6,1.2-6.1,0.7
			c-2.4-0.5-4.3-1.6-5.5-3.3c-1.2-1.7-1.7-3.6-1.2-5.8c0.2-1.2,0.7-2.2,1.4-3l-6.2-1.2l-0.1-3.8l22,4.4L121,255z M109.3,252.7
			c-0.8,0.6-1.2,1.4-1.4,2.2c-0.3,1.4-0.1,2.6,0.6,3.6c0.7,1,1.9,1.6,3.5,1.9c3.2,0.6,5.1-0.6,5.7-3.7c0.1-0.3,0.1-0.8-0.1-1.3
			c-0.1-0.5-0.2-0.9-0.4-1.1L109.3,252.7z"/>
		<path d="M119.2,234.4l-2.8,10.8c1.2,0.2,2.3,0.1,3.1-0.5c0.9-0.6,1.5-1.5,1.8-2.8c0.4-1.6,0.3-3-0.3-4l3.1-0.7
			c0.7,1.5,0.7,3.5,0.1,6c-0.6,2.3-1.8,4-3.5,5s-3.8,1.2-6.2,0.5c-2.4-0.6-4.1-1.9-5.2-3.7c-1.1-1.9-1.4-3.8-0.8-5.9
			c0.6-2.2,1.7-3.8,3.4-4.8c1.7-1,3.5-1.2,5.5-0.7C117.8,233.7,118.4,233.9,119.2,234.4z M113.8,244.4l1.9-7.5
			c-2.3-0.3-3.7,0.6-4.3,2.8C110.9,241.8,111.7,243.3,113.8,244.4z"/>
		<path d="M117.2,222.3c-0.6,0.5-1,1.1-1.3,1.9c-0.3,0.8-0.1,1.6,0.4,2.5c0.5,0.9,1.3,1.5,2.4,1.8l8.5,2.7l-1.1,3.5l-15-4.7l1.1-3.5
			l1.4,0.4c-0.8-1.3-0.9-2.8-0.4-4.4c0.4-1.2,0.8-2,1.4-2.6L117.2,222.3z"/>
		<path d="M135.2,209.8l-0.5,1.2l-10.5,0.6l7.5,7.5l-0.5,1.3l-17-0.2l1.4-3.6l9.9,0.4L118,210l0.5-1.2l10.2-0.3l-7.6-6.5l1.3-3.4
			L135.2,209.8z"/>
		<path d="M137.2,188.4l-4.7,10.2c1.2,0.5,2.2,0.5,3.2,0.1c1-0.4,1.7-1.2,2.3-2.5c0.7-1.5,0.9-2.8,0.4-4l3.1-0.1
			c0.4,1.6,0.1,3.6-1,5.9c-1,2.2-2.5,3.6-4.3,4.3c-1.9,0.7-3.9,0.5-6.2-0.6c-2.2-1-3.7-2.6-4.5-4.6c-0.7-2-0.7-4,0.2-6
			c1-2.1,2.4-3.4,4.2-4.1c1.8-0.7,3.7-0.6,5.6,0.3C135.9,187.4,136.5,187.8,137.2,188.4z M130,197.3l3.3-7c-2.2-0.7-3.8-0.1-4.7,2
			C127.7,194.2,128.1,195.8,130,197.3z"/>
		<path d="M126.1,177.3c0.3-0.5,0.7-0.9,1.2-1c0.6-0.2,1.1-0.1,1.6,0.1s0.9,0.7,1,1.2c0.2,0.6,0.1,1.1-0.1,1.6
			c-0.3,0.5-0.7,0.9-1.2,1c-0.6,0.2-1.1,0.1-1.6-0.1c-0.5-0.3-0.9-0.7-1-1.2C125.8,178.3,125.8,177.8,126.1,177.3z M144.5,189.1
			l-11.2-5.9l-0.9,1.8l-2.7-1.4l2.6-5.1l13.9,7.3L144.5,189.1z"/>
		<path d="M150.3,186.5l-1.3-3.4c1.7-0.5,2.9-1.5,3.7-2.8c0.5-0.9,0.8-1.7,0.9-2.5c0.1-0.7-0.1-1.3-0.6-1.5c-0.8-0.5-1.6,0-2.3,1.3
			c-0.2,0.4-0.5,0.9-0.8,1.7c-0.3,0.8-0.6,1.3-0.8,1.7c-1.3,2.2-2.7,2.8-4.2,1.9c-0.4-0.3-0.8-0.7-1-1.3s-0.3-1.2-0.2-1.8
			c-1.9,1-3.8,0.9-5.6-0.1c-1.5-0.8-2.3-2.1-2.7-3.7c-0.3-1.6-0.1-3.2,0.8-4.8c0.7-1.2,1.5-2.1,2.4-2.7l-0.7-2.1l3.3-1l0.2,2.1
			c1.1-0.1,2.2,0.2,3.3,0.8c1.5,0.9,2.5,2.1,2.9,3.6c0.4,1.5,0.2,2.9-0.7,4.4c-0.1,0.2-0.3,0.5-0.6,0.9l-0.4,0.5
			c0,0.1-0.1,0.3-0.1,0.8s0,0.8,0.2,0.9c0.3,0.2,0.7,0,1-0.6c0.2-0.3,0.3-0.7,0.6-1.4c0.2-0.7,0.5-1.3,0.7-1.7
			c1.8-3.1,3.9-3.9,6.4-2.5c1.4,0.8,2.1,2,2.2,3.7c0.1,1.7-0.4,3.4-1.4,5.1C154.2,184,152.5,185.6,150.3,186.5z M139.8,176.3
			c0.8,0.5,1.6,0.6,2.3,0.5c0.7-0.2,1.3-0.6,1.8-1.4s0.5-1.5,0.3-2.1c-0.2-0.7-0.8-1.3-1.6-1.7c-0.7-0.4-1.4-0.5-2.1-0.3
			c-0.7,0.2-1.3,0.6-1.7,1.3c-0.4,0.7-0.5,1.5-0.3,2.2S139.1,175.8,139.8,176.3z"/>
		<path d="M159.6,163.5l-8.1-5.3c-0.8-0.5-1.6-0.7-2.4-0.5c-0.8,0.2-1.5,0.7-2,1.5c-0.3,0.5-0.5,1.1-0.6,1.8c-0.1,0.7,0,1.3,0.2,1.7
			l9.4,6.2l-2,3.1l-18-11.8l1.3-3.6l6.4,4.2c-0.2-1.3,0.2-2.6,1.1-4c1.1-1.6,2.4-2.6,3.9-2.9c1.5-0.3,3.1,0.1,4.8,1.2l8.1,5.3
			L159.6,163.5z"/>
		<path d="M153.1,150.7l-1.1,1.5l-2.4-1.7l1.1-1.5l-2.6-1.9l1.1-3.7l3.7,2.7l2.6-3.5l2.4,1.7l-2.6,3.5l5.5,4.1c0.9,0.7,1.6,1,2.2,1
			s1.1-0.4,1.7-1.1c0.5-0.7,0.8-1.5,0.9-2.4l2.7,2c-0.3,0.9-0.9,1.9-1.8,3.2c-0.9,1.3-2,2-3.2,2.1c-1.2,0.2-2.5-0.3-3.8-1.2
			L153.1,150.7z"/>
	</g>
	<g>
		<path class="st5" d="M571.6,126.5c0,0,80.3,74.5,73.7,194.6"/>
		<path d="M621.6,174.9c2.7-1.4,5.4-1.9,8-1.4c2.6,0.5,4.6,2,5.9,4.5c1.4,2.7,1.7,5.3,0.7,7.6c-0.9,2.3-2.9,4.3-6,5.9
			c-3.1,1.6-5.9,2.1-8.5,1.5c-2.6-0.6-4.6-2.2-6.1-5c-1.3-2.6-1.5-5-0.4-7.3C616.4,178.5,618.5,176.5,621.6,174.9z M623.4,178.4
			c-2.2,1.2-3.8,2.4-4.6,3.8c-0.8,1.4-0.9,2.8-0.1,4.2c0.9,1.7,2.1,2.7,3.8,2.9c1.7,0.3,3.6-0.2,5.9-1.4c4.5-2.3,5.8-5.1,4.1-8.4
			c-0.8-1.5-2-2.3-3.6-2.5C627.3,176.9,625.5,177.4,623.4,178.4z"/>
		<path d="M622.9,199.9l-1.4-0.3l-0.8-1.9l20-8.8l2.3,3l-6.7,3c0.9,0.7,1.6,1.5,2.1,2.6c0.9,2.1,1,4.1,0.3,6
			c-0.8,1.9-2.2,3.3-4.2,4.2c-2.4,1.1-4.6,1.3-6.6,0.6s-3.4-2.1-4.4-4.3C622.8,202.4,622.7,201.1,622.9,199.9z M633.4,196.1
			l-7.5,3.3c-0.4,0.7-0.4,1.5,0,2.4c0.7,1.6,1.6,2.6,2.7,2.9c1.1,0.3,2.4,0.1,4.1-0.6c2.9-1.3,3.8-3.3,2.5-6.1
			C634.8,197,634.2,196.4,633.4,196.1z"/>
		<path d="M638.6,223l-3.9-10.5c-1.1,0.5-1.9,1.2-2.3,2.2c-0.4,1-0.3,2.1,0.1,3.4c0.6,1.6,1.4,2.6,2.6,3.1l-2.1,2.3
			c-1.4-0.8-2.6-2.5-3.5-4.9c-0.8-2.2-0.8-4.3,0-6.1c0.8-1.8,2.4-3.1,4.8-4c2.3-0.9,4.5-0.8,6.4,0c2,0.9,3.3,2.3,4.1,4.3
			c0.8,2.1,0.8,4.1,0,5.8s-2.2,3-4.1,3.7C640.2,222.7,639.5,222.9,638.6,223z M637.3,211.7l2.7,7.2c2.1-1,2.7-2.6,1.9-4.8
			C641.1,212.1,639.6,211.3,637.3,211.7z"/>
		<path d="M633.4,225.5l3.2,0.4c-0.5,1.3-0.5,2.6-0.1,3.9c0.4,1.4,1.1,1.9,2.1,1.6c0.6-0.2,1-0.5,1.2-1.1c0.2-0.5,0.4-1.5,0.5-2.8
			c0.3-2.9,1.3-4.7,3.3-5.3c1.3-0.4,2.5-0.2,3.5,0.5c1,0.8,1.8,1.9,2.3,3.4c0.5,1.6,0.6,3.1,0.3,4.7l-3-0.1c0.4-1,0.4-2.1,0-3.5
			c-0.4-1.2-1.1-1.7-2-1.4c-0.4,0.1-0.7,0.4-0.8,0.9c-0.2,0.5-0.3,1.5-0.4,3c-0.1,1.5-0.4,2.6-1,3.4c-0.6,0.8-1.3,1.4-2.4,1.7
			c-1.4,0.4-2.6,0.3-3.8-0.5c-1.1-0.8-2-2-2.5-3.8c-0.3-1-0.5-1.8-0.5-2.5S633.2,226.6,633.4,225.5z"/>
		<path d="M646.1,249.3l-2.8-10.8c-1.2,0.4-2,1-2.5,2s-0.5,2.1-0.2,3.4c0.4,1.6,1.2,2.7,2.2,3.4l-2.4,2.1c-1.3-1-2.3-2.7-3-5.2
			c-0.6-2.3-0.4-4.3,0.6-6s2.7-2.9,5.2-3.5c2.4-0.6,4.5-0.4,6.4,0.7c1.9,1.1,3.1,2.7,3.6,4.7c0.6,2.2,0.4,4.1-0.6,5.8
			c-1,1.7-2.5,2.8-4.5,3.3C647.7,249.2,647,249.3,646.1,249.3z M646,237.9l1.9,7.5c2.2-0.8,2.9-2.3,2.4-4.6
			C649.8,238.8,648.3,237.8,646,237.9z"/>
	</g>
	<g>
		<path class="st5" d="M190.9,126.8c0,0,69.3-84.9,189.5-85.9"/>
		<path d="M245,81.4l-5.3-8.1l-7.1,4.7l5.3,8.1l-3.2,2.1l-11.8-18l3.2-2.1l4.6,7l7.1-4.7l-4.6-7l3.2-2.1l11.8,18L245,81.4z"/>
		<path d="M259.1,65.3l-9.7,5.5c0.7,1.1,1.5,1.7,2.6,1.9s2.1,0,3.3-0.7c1.5-0.8,2.3-1.8,2.7-3l2.6,1.7c-0.6,1.5-2,3-4.2,4.2
			c-2.1,1.2-4.1,1.5-6,1c-1.9-0.5-3.5-1.9-4.7-4.1c-1.2-2.1-1.5-4.3-1-6.4c0.6-2.1,1.8-3.7,3.6-4.7c2-1.1,3.9-1.4,5.8-0.9
			c1.9,0.5,3.3,1.7,4.4,3.5C258.6,63.8,258.8,64.4,259.1,65.3z M248.1,68.4l6.7-3.8c-1.4-1.9-3-2.2-5-1.1
			C248,64.5,247.4,66.1,248.1,68.4z"/>
		<path d="M270.9,65.2c-0.1,0.6-0.4,1.3-1,2c-0.6,0.7-1.3,1.2-2.1,1.6c-1.5,0.8-2.9,1-4.1,0.6c-1.2-0.3-2.2-1.2-2.9-2.6
			c-0.8-1.6-0.8-3.2-0.1-4.7c0.8-1.5,2.3-2.8,4.5-4c0.4-0.2,0.9-0.4,1.5-0.5c-0.8-1.7-2.3-2-4.4-0.9c-1.2,0.6-2.2,1.3-2.8,2.2
			l-2-2.2c0.9-1.1,2.1-2,3.6-2.8c2.1-1.1,4-1.4,5.4-0.9c1.5,0.5,2.9,2.1,4.3,4.8l1.5,3c0.9,1.9,1.9,2.9,2.9,3c0,0.6-0.2,1-0.5,1.3
			c-0.3,0.3-0.6,0.5-1.1,0.7c-0.5,0.2-1,0.3-1.5,0.1C271.7,65.8,271.2,65.5,270.9,65.2z M268,60.1c-0.6,0.2-1.1,0.3-1.3,0.5
			c-2.6,1.3-3.5,2.8-2.6,4.5c0.6,1.3,1.7,1.5,3.1,0.8c2-1,2.5-2.5,1.5-4.4L268,60.1z"/>
		<path d="M268.4,44.3l3-2.3l7.2,16.1c0.8,1.8,1.8,2.6,3,2.4c-0.1,1.2-0.7,2.1-2,2.7c-1.5,0.7-2.7,0-3.7-2.1L268.4,44.3z"/>
		<path d="M278.9,49.3l-1.7,0.7l-1.1-2.7l1.7-0.7l-1.2-3l2.9-2.6l1.7,4.2l4-1.6l1.1,2.7l-4,1.6l2.6,6.4c0.4,1,0.9,1.7,1.4,2
			c0.5,0.3,1.2,0.3,2-0.1s1.5-0.9,2-1.6l1.3,3.1c-0.7,0.6-1.7,1.2-3.2,1.8c-1.4,0.6-2.7,0.6-3.8,0.1c-1.1-0.5-2-1.5-2.6-3
			L278.9,49.3z"/>
		<path d="M302.2,54.1l-3.2-9.1c-0.3-0.9-0.9-1.5-1.6-1.9c-0.8-0.4-1.6-0.4-2.5,0c-0.6,0.2-1.1,0.6-1.6,1.1c-0.5,0.5-0.8,1-0.9,1.5
			l3.7,10.6l-3.5,1.2l-7.1-20.3l3.2-2.1l2.6,7.3c0.6-1.1,1.7-2,3.3-2.5c1.9-0.7,3.5-0.6,4.9,0c1.4,0.7,2.4,2,3.1,3.9l3.2,9.1
			L302.2,54.1z"/>
		<path d="M315.1,52.7c-0.1,1.1-0.7,2.2-1.7,3.2c-1,1-2.4,1.8-4,2.2l-0.9-3.1c2.7-0.8,3.9-1.8,3.5-3.2c-0.3-0.9-1-2.2-2.3-3.8
			l-8.1-10.4l3.6-1l7.1,9.3l0.7-11.5l3.6-1L315.1,52.7z"/>
	</g>
	<g>
		<path class="st5" d="M382.7,40c0,0,109.5-2.3,188.2,88.7"/>
		<path d="M425.9,33.7c0.7-3,2.1-5.3,4.2-7s4.5-2.2,7.3-1.6c3,0.7,5.1,2.2,6.2,4.4c1.2,2.2,1.3,5,0.6,8.4c-0.8,3.4-2.2,5.8-4.3,7.4
			s-4.7,2-7.8,1.3c-2.8-0.7-4.7-2.1-5.8-4.4C425.3,39.9,425.1,37.1,425.9,33.7z M429.8,34.6c-0.6,2.4-0.6,4.4-0.1,6
			c0.5,1.5,1.6,2.5,3.1,2.8c1.9,0.4,3.4,0.1,4.7-1c1.3-1.1,2.2-2.9,2.8-5.4c1.1-4.9-0.1-7.8-3.7-8.6c-1.7-0.4-3.1,0-4.3,1.1
			C431.2,30.6,430.3,32.3,429.8,34.6z"/>
		<path d="M449.2,51.1l-1.3-0.4l-2.3-17.3l3.8,1.1l0.9,10.3l6.6-8l3.7,1.1L449.2,51.1z"/>
		<path d="M472,51.4l-10.6-3.8c-0.4,1.2-0.3,2.3,0.2,3.2c0.5,0.9,1.4,1.6,2.7,2.1c1.6,0.6,2.9,0.6,4,0l0.4,3.1
			c-1.6,0.6-3.6,0.4-6-0.5c-2.3-0.8-3.8-2.1-4.6-3.9c-0.8-1.8-0.8-3.9,0-6.2c0.8-2.3,2.2-4,4.2-4.9c2-0.9,3.9-1,6-0.3
			c2.1,0.8,3.6,2,4.5,3.8s0.9,3.6,0.2,5.6C472.8,50,472.5,50.6,472,51.4z M462.5,45.1l7.3,2.6c0.5-2.2-0.3-3.8-2.4-4.5
			C465.3,42.4,463.7,43.1,462.5,45.1z"/>
		<path d="M484.2,50.4c-0.4-0.6-1-1.1-1.7-1.4c-0.8-0.3-1.6-0.3-2.5,0.2c-0.9,0.5-1.6,1.2-2,2.2l-3.4,8.3l-3.4-1.4l6-14.5l3.4,1.4
			l-0.5,1.3c1.4-0.7,2.9-0.7,4.4,0c1.2,0.5,2,1,2.4,1.6L484.2,50.4z"/>
		<path d="M495.1,69.4l-1.2-0.6l0.3-10.6l-8.1,6.8l-1.2-0.6l1.7-17l3.5,1.7l-1.3,9.8l7.5-6.7l1.2,0.6L497,63.1l7.2-7l3.2,1.6
			L495.1,69.4z"/>
		<path d="M516.2,73.3l-9.7-5.6c-0.6,1.1-0.7,2.2-0.3,3.2c0.3,1,1.1,1.8,2.2,2.5c1.4,0.8,2.8,1.1,3.9,0.8l-0.2,3.1
			c-1.6,0.3-3.6-0.3-5.8-1.5c-2.1-1.2-3.4-2.8-3.9-4.7s-0.1-4,1.1-6.1c1.2-2.1,2.9-3.5,5-4.1s4.1-0.3,5.9,0.8c2,1.1,3.2,2.6,3.7,4.5
			c0.5,1.9,0.2,3.7-0.8,5.5C517.3,72.1,516.9,72.6,516.2,73.3z M508,65.3l6.7,3.9c0.9-2.1,0.4-3.7-1.6-4.9
			C511.3,63.3,509.6,63.6,508,65.3z"/>
		<path d="M514.9,80.5l6.8-10.7l-1.7-1.1l1.6-2.5l4.8,3.1l-8.5,13.2L514.9,80.5z M528.3,63.2c0.5,0.3,0.8,0.8,0.9,1.3
			c0.1,0.6,0,1.1-0.3,1.6c-0.3,0.5-0.8,0.8-1.3,0.9c-0.6,0.1-1.1,0-1.6-0.3c-0.5-0.3-0.8-0.8-0.9-1.3c-0.1-0.6,0-1.1,0.3-1.6
			c0.3-0.5,0.8-0.8,1.3-0.9S527.8,62.9,528.3,63.2z"/>
		<path d="M517,86.5l3.5-1c0.4,1.7,1.2,3,2.5,3.9c0.9,0.6,1.7,1,2.4,1.1c0.7,0.1,1.3,0,1.6-0.5c0.5-0.8,0.2-1.6-1.1-2.4
			c-0.3-0.2-0.9-0.5-1.6-0.9c-0.7-0.4-1.2-0.7-1.6-0.9c-2.1-1.4-2.6-2.9-1.5-4.4c0.3-0.4,0.8-0.7,1.4-0.9c0.6-0.2,1.2-0.2,1.8-0.1
			c-0.8-2-0.6-3.8,0.6-5.6c1-1.4,2.3-2.2,3.9-2.4c1.6-0.2,3.2,0.2,4.7,1.3c1.2,0.8,2,1.7,2.4,2.7l2.1-0.5l0.8,3.3l-2.2,0
			c0,1.1-0.4,2.2-1.1,3.2c-1,1.5-2.3,2.3-3.8,2.6c-1.5,0.3-2.9-0.1-4.3-1c-0.2-0.2-0.5-0.4-0.8-0.7l-0.4-0.4c-0.1,0-0.3-0.1-0.8-0.2
			c-0.5-0.1-0.8,0-0.9,0.1c-0.2,0.3-0.1,0.7,0.5,1.1c0.2,0.2,0.7,0.4,1.4,0.7c0.7,0.3,1.2,0.6,1.6,0.9c2.9,2,3.6,4.2,1.9,6.6
			c-0.9,1.3-2.2,1.9-3.9,1.8c-1.7-0.1-3.4-0.7-5-1.8C519.2,90.6,517.8,88.8,517,86.5z M528.1,77c-0.5,0.8-0.7,1.5-0.6,2.3
			c0.1,0.8,0.5,1.4,1.2,1.9c0.7,0.5,1.4,0.7,2.1,0.5c0.7-0.2,1.3-0.7,1.9-1.4c0.5-0.6,0.6-1.3,0.5-2.1c-0.1-0.7-0.5-1.3-1.1-1.8
			c-0.7-0.5-1.4-0.7-2.1-0.5C529.2,75.9,528.6,76.3,528.1,77z"/>
		<path d="M539.1,97.8l6-7.6c0.6-0.8,0.8-1.6,0.7-2.4c-0.1-0.8-0.6-1.6-1.3-2.2c-0.5-0.4-1.1-0.6-1.7-0.7c-0.7-0.1-1.3-0.1-1.7,0.1
			l-7,8.8l-2.9-2.3l13.3-16.9l3.5,1.6l-4.8,6.1c1.3-0.1,2.6,0.4,3.9,1.4c1.5,1.2,2.4,2.6,2.6,4.1s-0.4,3.1-1.6,4.7l-6,7.6
			L539.1,97.8z"/>
		<path d="M552.5,92.4l-1.4-1.2L553,89l1.4,1.2l2.1-2.4l3.6,1.4l-3,3.4l3.2,2.8l-1.9,2.2l-3.2-2.8l-4.5,5.2
			c-0.7,0.8-1.1,1.6-1.2,2.1c0,0.6,0.3,1.2,0.9,1.7c0.7,0.6,1.4,0.9,2.3,1.1l-2.2,2.5c-0.8-0.3-1.8-1-3-2.1c-1.2-1-1.8-2.2-1.8-3.4
			c0-1.2,0.5-2.4,1.5-3.7L552.5,92.4z"/>
	</g>
</g>
<g id="Layer_2">
</g>
<g id="Layer_3">
</g>
</svg>
