<svg id="Layer_1" data-name="Layer 1" xmlns="http://www.w3.org/2000/svg" width="40" height="39.38" viewBox="0 0 40 39.38"><defs><style>.cls-1{fill:#ed1f54;}</style></defs><title>Artboard 7 copy 3</title><path class="cls-1" d="M20,27.31a1.45,1.45,0,0,1-1-.37L13.51,22.1c-2.68-2.59-5.41-5.37-7-8.75a10.92,10.92,0,0,1-1.12-4.5c0-5,3.52-8.78,8.19-8.78,3.64,0,5.71,2,6.43,4.37C20.76,2.05,22.83.07,26.47.07c4.67,0,8.19,3.78,8.19,8.78a10.92,10.92,0,0,1-1.12,4.5c-1.56,3.38-4.27,6.15-6.92,8.7L21,27A1.49,1.49,0,0,1,20,27.31ZM13.61,2.94c-3,0-5.27,2.54-5.27,5.91a8.19,8.19,0,0,0,.87,3.32c1.34,2.92,3.85,5.47,6.3,7.83L20,24l4.58-4c2.41-2.32,4.91-4.86,6.25-7.78a8.19,8.19,0,0,0,.87-3.32c0-3.37-2.27-5.91-5.27-5.91s-3.8,1.92-3.8,3.52a2.82,2.82,0,0,1-.87,2.12,2.55,2.55,0,0,1-1.7.66H20a2.57,2.57,0,0,1-1.73-.66,2.82,2.82,0,0,1-.87-2.12C17.41,4.86,16.75,2.94,13.61,2.94Z"/></svg>