<svg id="Layer_1" data-name="Layer 1" xmlns="http://www.w3.org/2000/svg" xmlns:xlink="http://www.w3.org/1999/xlink" width="382.24" height="340" viewBox="0 0 382.24 340"><defs><style>.cls-1{fill:none;}.cls-2{fill:#b2e2d3;}.cls-3{clip-path:url(#clip-path);}.cls-4{fill:#ffbd32;}.cls-5{fill:#474e5a;}.cls-6{fill:#fff;}.cls-7{fill:#474f59;}.cls-8{clip-path:url(#clip-path-2);}.cls-9{fill:#ffbe33;}</style><clipPath id="clip-path"><rect class="cls-1" x="56.11" y="150.15" width="220.44" height="189.92"/></clipPath><clipPath id="clip-path-2"><rect class="cls-1" x="55.79" y="120.37" width="292.76" height="219.11"/></clipPath></defs><title>Artboard 12 copy 2</title><rect class="cls-2" width="382.24" height="340"/><g class="cls-3"><path class="cls-4" d="M93,280.26c41.43,74.67,82.32,65.61,82.32,65.61,42.07,3.4,60.47-53.91,63.12-69.83,4.31-.57,11.19-1.4,17.05-20.27,7.4-23.93.61-28.72-7.09-29h-1.24c.31-.28.31-.28.31-.56,1.24-3.66,7.4-25.62-13.57-38.86-16.64,3.66-42.24,4.23-76.77-9.29-66.29-25.62-72.15,48.71-72.15,48.71l12.59-1.33c-6.78,0-13,19.44-5.63,43.65C97.75,288,88.94,280,93,280.26"/><path class="cls-5" d="M170,184.57s14.9,19.7,59.39,30c22.19,5.12-26.06,140.41-6.34,157.39,25.34,21.82,48.89,12.8,45.62-51.75-1-19.32,4.27-81.65-27-134.24s-70.15-62-87.34-52.46S145,169.08,145,169.08Z"/><path class="cls-5" d="M195.07,175.38s-25.8,40.36-77.27,39.14C95,214,158.32,370.79,105.56,366.89,65,363.9,76,355.42,76,309.63,76,284.71,67.12,240.9,90,186c23.45-56.29,77.64-62.12,94.82-52.58s9.32,35.62,9.32,35.62Z"/></g><rect class="cls-6" x="287" y="127.88" width="43.69" height="211.6"/><polyline class="cls-7" points="330.68 147.91 313.94 147.91 313.94 153.93 330.68 153.93"/><polyline class="cls-7" points="330.68 199.2 313.94 199.2 313.94 205.22 330.68 205.22"/><polyline class="cls-7" points="330.68 226.81 313.94 226.81 313.94 232.83 330.68 232.83"/><polyline class="cls-7" points="330.68 254.42 313.94 254.42 313.94 260.44 330.68 260.44"/><polyline class="cls-7" points="330.68 282.03 313.94 282.03 313.94 288.05 330.68 288.05"/><polyline class="cls-7" points="330.68 309.64 313.94 309.64 313.94 315.67 330.68 315.67"/><rect class="cls-7" x="313.94" y="337.25" width="16.74" height="2.23"/><rect class="cls-7" x="313.94" y="173.17" width="16.74" height="6.03"/><g class="cls-8"><path class="cls-9" d="M343.43,167.48h-284l33.86-28.43H343.43c6.82,0,6.82,28.43,0,28.43"/></g></svg>