<svg id="Layer_1" data-name="Layer 1" xmlns="http://www.w3.org/2000/svg" width="40" height="39.38" viewBox="0 0 40 39.38"><defs><style>.cls-1{fill:#ed1f54;}.cls-2{fill:none;}</style></defs><title>Artboard 7 copy</title><path class="cls-1" d="M19.56,26.77A13.44,13.44,0,0,1,5.89,13.6,13.43,13.43,0,0,1,19.56.44,13.44,13.44,0,0,1,33.24,13.6,13.44,13.44,0,0,1,19.56,26.77Zm0-23.9A11,11,0,0,0,8.37,13.6,11,11,0,0,0,19.56,24.34,11,11,0,0,0,30.76,13.6,11,11,0,0,0,19.56,2.87Z"/><rect class="cls-2" x="5.57" y="-0.1" width="27.35" height="26.33"/><path class="cls-1" d="M18.05,7.73a1.43,1.43,0,0,1,1.44-1.42,1.42,1.42,0,1,1-1.44,1.42Zm2.61,2.37v8.75H18.25V10.1Z"/></svg>