<svg id="Layer_1" data-name="Layer 1" xmlns="http://www.w3.org/2000/svg" width="40.63" height="40" viewBox="0 0 40.63 40"><defs><style>.cls-1{fill:#ec1f54;}</style></defs><title>Artboard 7</title><path class="cls-1" d="M22.85,28.59A7.64,7.64,0,0,1,20,28,8.77,8.77,0,0,1,9.9,24.56,12.29,12.29,0,0,1,8.82,11.05,7.09,7.09,0,0,1,14.7,8,4.31,4.31,0,0,1,13.36,7C12.3,5.69,11.9,3.84,12.17,1.42v0a1.18,1.18,0,0,1,.1-.45,1.2,1.2,0,0,1,1.1-.71,5.8,5.8,0,0,1,5,2.26A7.28,7.28,0,0,1,19.6,6.76v.43A8.84,8.84,0,0,1,24,3.58l.78,2.23-.39-1.12.4,1.12a6.33,6.33,0,0,0-3.35,3,8.56,8.56,0,0,1,6.12-.59,6.37,6.37,0,0,1,3.82,4.19c2.36,6.68-.22,10.3-1.46,12.05l-.26.37A8.78,8.78,0,0,1,22.85,28.59Zm-2.8-3a1.23,1.23,0,0,1,.52.12c4.2,2,7-2,7.14-2.22l.28-.41c1.17-1.63,3.12-4.37,1.16-9.91a4.06,4.06,0,0,0-2.36-2.75c-2.15-.77-4.87.79-4.9.81a2.34,2.34,0,0,1-2.39.21,1.45,1.45,0,0,1-.58-.71,1.18,1.18,0,0,1-1.65.5c-3.82-2.22-6.06.58-6.47,1.17a10,10,0,0,0,1,10.79c3.35,4.5,7.52,2.6,7.7,2.52A1.17,1.17,0,0,1,20.05,25.57ZM16.76,8.39l.29.1c.22-1.35.31-3.41-.6-4.68a3,3,0,0,0-2-1.14,4.06,4.06,0,0,0,.71,2.77,2.34,2.34,0,0,0,1.71.75Z"/></svg>