<svg id="Layer_1" data-name="Layer 1" xmlns="http://www.w3.org/2000/svg" width="40" height="39.38" viewBox="0 0 40 39.38"><defs><style>.cls-1{fill:#ed1f54;}</style></defs><title>Artboard 7 copy 2</title><path class="cls-1" d="M16.24,31.12a6.82,6.82,0,0,1-6.77-6.85v-.86a3.44,3.44,0,1,1,2.85,0v.86a3.92,3.92,0,1,0,7.84,0V18.14A6.15,6.15,0,0,1,16.29,15L13.6,9.78a7.13,7.13,0,0,1,.2-6.88,6,6,0,0,1,5.1-3h.75l0,2.89h-.76A3.08,3.08,0,0,0,16.25,4.4a4.18,4.18,0,0,0-.12,4l2.69,5.19a3,3,0,0,0,5.53,0L27,8.44a4.15,4.15,0,0,0-.11-4,3.09,3.09,0,0,0-2.65-1.61h-.76V-.1h.76a6,6,0,0,1,5.09,3,7.1,7.1,0,0,1,.2,6.88L26.88,15A6.15,6.15,0,0,1,23,18.14v6.13A6.82,6.82,0,0,1,16.24,31.12ZM10.9,19.68a.58.58,0,0,0-.58.58.59.59,0,0,0,.58.59.58.58,0,0,0,.57-.59A.57.57,0,0,0,10.9,19.68Z"/></svg>